<?xml version="1.0"?><svg data-name="Layer 1" id="Layer_1" viewBox="0 0 128 128" xmlns="http://www.w3.org/2000/svg"><title/><path d="M29.23,67.85A34.66,34.66,0,0,1,63.8,29.2a34.59,34.59,0,0,1,16.54,4.19l9-4.59A43.49,43.49,0,0,0,20.27,64c0,1.31.06,2.61.17,3.89A6.15,6.15,0,0,1,17.09,74L13,76v9.77L115,34.41V24.64Z"/><path d="M115,42.1,13,93.48v9.77l85.36-43A33.44,33.44,0,0,1,98.6,64,34.79,34.79,0,0,1,47.27,94.62l-9,4.59A43.49,43.49,0,0,0,107,69.61a44.29,44.29,0,0,0,.18-9.54,6.09,6.09,0,0,1,3.37-6L115,51.87Z"/></svg>